<?xml version="1.0" encoding="UTF-8" standalone="no"?>
<!DOCTYPE svg PUBLIC "-//W3C//DTD SVG 1.1//EN" "http://www.w3.org/Graphics/SVG/1.1/DTD/svg11.dtd">
<svg xmlns="http://www.w3.org/2000/svg" version="1.1" viewBox="0.00 0.00 224.00 224.00">
<path fill="#b3b3c3" d="
  M 107.88 0.00
  L 116.00 0.00
  C 120.12 0.89 124.97 0.89 128.32 1.40
  Q 152.16 4.99 171.42 17.31
  Q 211.50 42.96 221.80 90.48
  Q 222.96 95.85 224.00 107.88
  L 224.00 116.00
  Q 223.50 119.08 223.24 122.17
  C 219.31 168.18 186.99 206.32 143.04 219.41
  Q 142.95 219.44 142.95 219.35
  L 142.96 137.33
  Q 142.96 136.75 143.54 136.75
  L 166.54 136.75
  Q 167.10 136.75 167.17 136.20
  L 170.68 109.22
  Q 170.75 108.71 170.23 108.71
  L 143.48 108.72
  A 0.56 0.55 -0.0 0 1 142.92 108.17
  Q 142.94 98.27 143.00 89.49
  C 143.06 80.13 148.50 77.28 157.21 77.28
  Q 164.84 77.28 170.96 77.29
  Q 171.50 77.29 171.50 76.75
  L 171.51 52.76
  A 0.68 0.67 -87.7 0 0 170.89 52.08
  Q 162.88 51.44 154.49 51.17
  Q 145.12 50.88 139.11 52.41
  C 123.38 56.39 114.51 69.19 114.09 84.93
  Q 113.79 96.09 114.03 107.96
  A 0.77 0.77 0.0 0 1 113.26 108.75
  L 90.29 108.75
  Q 89.82 108.75 89.82 109.21
  L 89.81 136.53
  A 0.23 0.23 0.0 0 0 90.04 136.76
  L 113.44 136.77
  Q 113.95 136.77 113.95 137.27
  L 113.91 224.00
  L 108.00 224.00
  Q 104.48 223.39 100.94 223.09
  Q 95.93 222.67 93.85 222.31
  C 46.57 214.12 10.03 177.94 1.76 130.61
  C 1.02 126.39 0.73 120.95 0.00 116.12
  L 0.00 107.75
  Q 0.51 104.75 0.77 101.75
  C 5.26 50.18 44.76 9.52 95.40 1.44
  C 98.94 0.88 103.72 0.68 107.88 0.00
  Z"
/>
</svg>
