<?xml version="1.0" encoding="UTF-8" standalone="no"?>
<!DOCTYPE svg PUBLIC "-//W3C//DTD SVG 1.1//EN" "http://www.w3.org/Graphics/SVG/1.1/DTD/svg11.dtd">
<svg xmlns="http://www.w3.org/2000/svg" version="1.1" viewBox="0.00 0.00 224.00 224.00">
<path fill="#b3b3c3" d="
  M 107.88 0.00
  L 115.74 0.00
  C 120.09 0.98 125.12 0.87 128.75 1.44
  Q 160.61 6.44 184.15 26.60
  Q 220.83 58.01 224.00 107.91
  L 224.00 116.00
  Q 223.33 121.63 222.60 127.23
  Q 220.21 145.36 212.64 160.61
  C 196.39 193.35 166.27 216.31 130.20 222.32
  C 126.11 223.00 120.66 223.21 115.87 224.00
  L 108.27 224.00
  Q 104.73 223.29 101.12 223.02
  Q 95.78 222.64 93.95 222.33
  Q 65.77 217.60 43.93 200.60
  Q 8.91 173.35 1.48 129.04
  C 0.85 125.29 0.94 120.28 0.00 115.87
  L 0.00 107.75
  Q 0.52 104.67 0.79 101.59
  C 5.12 50.99 43.88 10.44 93.41 1.76
  Q 95.57 1.38 100.64 0.93
  Q 104.27 0.61 107.88 0.00
  Z
  M 47.06 127.38
  Q 45.34 140.62 53.09 151.49
  C 70.26 175.57 105.99 181.15 132.91 174.98
  C 154.42 170.06 180.60 153.26 177.04 127.49
  Q 176.97 126.98 177.43 126.75
  C 190.15 120.29 189.66 101.76 176.14 96.75
  Q 167.17 93.42 159.38 99.88
  Q 158.97 100.22 158.52 99.92
  C 146.46 91.52 131.25 86.91 116.00 86.46
  Q 115.31 86.44 115.46 85.78
  L 122.67 51.88
  A 0.50 0.50 0.0 0 1 123.26 51.50
  L 146.50 56.47
  Q 147.03 56.59 147.10 57.13
  Q 147.80 63.03 152.58 65.95
  C 161.35 71.31 171.80 63.70 170.16 53.96
  C 168.29 42.94 153.91 40.97 148.49 50.38
  Q 148.23 50.83 147.72 50.72
  L 121.52 45.13
  Q 118.21 44.43 117.52 47.74
  L 109.59 85.77
  Q 109.46 86.40 108.82 86.41
  C 93.17 86.83 77.95 91.29 65.48 99.87
  Q 65.02 100.19 64.60 99.82
  C 58.79 94.80 50.43 94.13 44.20 98.75
  C 34.11 106.23 35.49 121.31 46.67 126.66
  Q 47.12 126.88 47.06 127.38
  Z"
/>
<circle fill="#b3b3c3" cx="86.33" cy="123.67" r="11.63"/>
<circle fill="#b3b3c3" cx="137.67" cy="123.67" r="11.63"/>
<path fill="#b3b3c3" d="
  M 88.33 150.09
  C 96.61 157.54 111.80 158.01 123.03 155.90
  Q 130.47 154.51 135.86 150.03
  Q 137.38 148.77 139.07 149.77
  Q 139.60 150.08 139.94 150.56
  Q 141.50 152.71 139.58 154.55
  Q 135.16 158.76 129.11 160.52
  Q 110.12 166.03 92.42 159.60
  Q 88.20 158.06 84.46 154.57
  Q 82.40 152.63 84.19 150.44
  Q 84.46 150.10 84.83 149.85
  Q 86.67 148.61 88.33 150.09
  Z"
/>
</svg>
